<?xml version="1.0" encoding="UTF-8" standalone="no"?>
<!-- Created with Inkscape (http://www.inkscape.org/) -->

<svg
   xmlns:dc="http://purl.org/dc/elements/1.1/"
   xmlns:cc="http://creativecommons.org/ns#"
   xmlns:rdf="http://www.w3.org/1999/02/22-rdf-syntax-ns#"
   xmlns:svg="http://www.w3.org/2000/svg"
   xmlns="http://www.w3.org/2000/svg"
   xmlns:sodipodi="http://sodipodi.sourceforge.net/DTD/sodipodi-0.dtd"
   xmlns:inkscape="http://www.inkscape.org/namespaces/inkscape"
   width="139.81779"
   height="27.324221"
   viewBox="0 0 139.81779 27.324221"
   id="svg4473"
   version="1.1"
   inkscape:version="0.91 r13725"
   sodipodi:docname="рисунок-2.svg">
  <defs
     id="defs4475" />
  <sodipodi:namedview
     id="base"
     pagecolor="#ffffff"
     bordercolor="#666666"
     borderopacity="1.0"
     inkscape:pageopacity="0.0"
     inkscape:pageshadow="2"
     inkscape:zoom="3.959798"
     inkscape:cx="85.345401"
     inkscape:cy="8.4003164"
     inkscape:document-units="px"
     inkscape:current-layer="layer1"
     showgrid="false"
     inkscape:window-width="1920"
     inkscape:window-height="1004"
     inkscape:window-x="0"
     inkscape:window-y="24"
     inkscape:window-maximized="1"
     units="px"
     fit-margin-top="0"
     fit-margin-left="0"
     fit-margin-right="0"
     fit-margin-bottom="0" />
  <metadata
     id="metadata4478">
    <rdf:RDF>
      <cc:Work
         rdf:about="">
        <dc:format>image/svg+xml</dc:format>
        <dc:type
           rdf:resource="http://purl.org/dc/dcmitype/StillImage" />
        <dc:title></dc:title>
      </cc:Work>
    </rdf:RDF>
  </metadata>
  <g
     inkscape:label="Layer 1"
     inkscape:groupmode="layer"
     id="layer1"
     transform="translate(-0.0911,-1023.7001)">
    <g
       id="g4594"
       transform="translate(-128.02623,573.39604)"
       style="fill:#ffffff">
      <g
         transform="translate(118.57185,48.15171)"
         id="flowRoot4481"
         style="font-style:normal;font-weight:normal;font-size:40px;line-height:125%;font-family:sans-serif;letter-spacing:0px;word-spacing:0px;fill:#ffffff;fill-opacity:1;stroke:none;stroke-width:1px;stroke-linecap:butt;stroke-linejoin:miter;stroke-opacity:1">
        <path
           inkscape:connector-curvature="0"
           id="path4498"
           style="font-style:normal;font-variant:normal;font-weight:normal;font-stretch:normal;font-size:40px;line-height:125%;font-family:'Abyssinica SIL';-inkscape-font-specification:'Abyssinica SIL, Normal';text-align:start;writing-mode:lr-tb;text-anchor:start;fill:#ffffff"
           d="m 105.57422,415.51172 q 0,1.73828 -0.33203,3.41797 -0.33203,1.67968 -1.03516,3.18359 -0.70312,1.50391 -1.8164,2.77344 -1.09375,1.25 -2.636724,2.16797 -1.542969,0.91797 -3.554687,1.42578 -2.011719,0.50781 -4.511719,0.50781 l -11.113281,0 0,-1.71875 2.109375,-0.15625 q 0.429687,-0.0391 0.644531,-0.3125 0.234375,-0.27344 0.234375,-0.56641 l 0,-21.32812 q 0,-0.29297 -0.234375,-0.56641 -0.214844,-0.27343 -0.644531,-0.3125 l -2.109375,-0.15625 0,-1.71875 10.3125,0 q 3.144531,0 5.839843,0.80078 2.695313,0.78125 4.648438,2.42188 1.97266,1.64062 3.08594,4.16016 1.11328,2.51953 1.11328,5.97656 z m -4.53125,0.0781 q 0,-3.14453 -0.74219,-5.33203 -0.722655,-2.20703 -2.089843,-3.57422 -1.347656,-1.38672 -3.28125,-1.99218 -1.914062,-0.625 -4.277343,-0.625 l -3.046875,0 0,23.00781 3.242187,-0.0391 q 2.304688,-0.0195 4.179688,-0.64454 1.894531,-0.64453 3.222656,-2.01171 1.328125,-1.36719 2.05078,-3.53516 0.74219,-2.16797 0.74219,-5.25391 z" />
        <path
           inkscape:connector-curvature="0"
           id="path4500"
           style="font-style:normal;font-variant:normal;font-weight:normal;font-stretch:normal;font-size:40px;line-height:125%;font-family:'Abyssinica SIL';-inkscape-font-specification:'Abyssinica SIL, Normal';text-align:start;writing-mode:lr-tb;text-anchor:start;fill:#ffffff"
           d="m 120.86719,428.98828 -0.52735,-2.36328 q -1.05468,0.80078 -2.16796,1.42578 -0.48829,0.27344 -1.03516,0.52734 -0.54688,0.25391 -1.13281,0.44922 -0.56641,0.21485 -1.17188,0.33203 -0.58594,0.11719 -1.17187,0.11719 -1.09375,0 -2.05078,-0.37109 -0.9375,-0.3711 -1.64063,-1.07422 -0.70312,-0.70313 -1.11328,-1.69922 -0.39063,-0.99609 -0.39063,-2.26562 0,-0.74219 0.13672,-1.40625 0.15625,-0.66407 0.60547,-1.28907 0.44922,-0.625 1.25,-1.1914 0.82031,-0.58594 2.12891,-1.15235 1.32812,-0.5664 3.22265,-1.11328 1.91407,-0.5664 4.53125,-1.13281 l 0,-1.71875 q 0,-2.01172 -0.89843,-2.96875 -0.89844,-0.97656 -2.83203,-0.97656 -1.05469,0 -1.79688,0.19531 -0.74219,0.19531 -1.03516,0.3125 l 0,3.47656 -2.91015,0 q -0.27344,0 -0.54688,-0.0391 -0.2539,-0.0391 -0.46875,-0.15625 -0.21484,-0.13672 -0.35156,-0.35156 -0.11719,-0.23438 -0.11719,-0.60547 0,-1.23047 0.74219,-2.10938 0.74219,-0.89843 1.93359,-1.48437 1.19141,-0.58594 2.67579,-0.85938 1.48437,-0.27343 2.96875,-0.27343 1.85546,0 3.0664,0.44921 1.23047,0.44922 1.9336,1.25 0.72265,0.80079 1.01562,1.89454 0.29297,1.09375 0.29297,2.40234 l 0,11.21094 q 0,0.37109 0.23437,0.60547 0.25391,0.23437 0.60547,0.27343 l 1.9336,0.11719 0,1.5625 -5.91797,0 z m -0.52735,-10.68359 q -2.69531,0.68359 -4.27734,1.34765 -1.58203,0.66407 -2.40234,1.34766 -0.80078,0.66406 -1.03516,1.36719 -0.21484,0.68359 -0.21484,1.42578 0,0.625 0.19531,1.23047 0.21484,0.58593 0.58594,1.05468 0.39062,0.46875 0.9375,0.76172 0.5664,0.27344 1.28906,0.27344 0.80078,0 1.66016,-0.29297 0.8789,-0.29297 1.60156,-0.64453 0.83984,-0.41016 1.66015,-0.95703 l 0,-6.91406 z" />
        <path
           inkscape:connector-curvature="0"
           id="path4502"
           style="font-style:normal;font-variant:normal;font-weight:normal;font-stretch:normal;font-size:40px;line-height:125%;font-family:'Abyssinica SIL';-inkscape-font-specification:'Abyssinica SIL, Normal';text-align:start;writing-mode:lr-tb;text-anchor:start;fill:#ffffff"
           d="m 140.53516,428.98828 0,-1.5625 1.67968,-0.11719 q 0.35157,-0.0391 0.58594,-0.27343 0.25391,-0.23438 0.25391,-0.60547 l 0,-10.41016 q 0,-1.89453 -0.87891,-2.87109 -0.87891,-0.9961 -2.96875,-0.9961 -1.15234,0 -2.26562,0.33203 -1.11329,0.3125 -2.12891,0.82032 l 0,13.125 q 0,0.37109 0.23437,0.60547 0.23438,0.23437 0.60547,0.27343 l 1.67969,0.11719 0,1.5625 -9.04297,0 0,-1.5625 1.95313,-0.11719 q 0.37109,-0.0391 0.60547,-0.27343 0.23437,-0.23438 0.23437,-0.60547 l 0,-13.88672 -2.79297,0 0,-1.3086 4.88281,-1.52343 1.64063,0 0,1.99218 q 0.83984,-0.46875 1.69922,-0.91796 0.8789,-0.44922 1.73828,-0.80079 0.85937,-0.35156 1.66016,-0.54687 0.80078,-0.21484 1.5039,-0.21484 2.61719,0 3.98438,1.62109 1.36718,1.62109 1.36718,4.55078 l 0,11.03516 q 0,0.37109 0.23438,0.60547 0.25391,0.23437 0.60547,0.27343 l 1.75781,0.11719 0,1.5625 -8.82812,0 z" />
      </g>
      <g
         transform="matrix(-1,0,0,1,259.15839,-43.27798)"
         id="flowRoot4489"
         style="font-style:normal;font-weight:normal;font-size:40px;line-height:125%;font-family:sans-serif;letter-spacing:0px;word-spacing:0px;fill:#ffffff;fill-opacity:1;stroke:none;stroke-width:1px;stroke-linecap:butt;stroke-linejoin:miter;stroke-opacity:1">
        <path
           inkscape:connector-curvature="0"
           id="path4505"
           style="font-style:normal;font-variant:normal;font-weight:normal;font-stretch:normal;font-size:40px;line-height:125%;font-family:'Abyssinica SIL';-inkscape-font-specification:'Abyssinica SIL, Normal';text-align:start;writing-mode:lr-tb;text-anchor:start;fill:#ffffff"
           d="m 89.146484,506.94141 q 0,1.73828 -0.332031,3.41796 -0.332031,1.67969 -1.035156,3.1836 -0.703125,1.5039 -1.816406,2.77344 -1.09375,1.25 -2.636719,2.16796 -1.542969,0.91797 -3.554688,1.42579 -2.011718,0.50781 -4.511718,0.50781 l -11.113282,0 0,-1.71875 2.109375,-0.15625 q 0.429688,-0.0391 0.644532,-0.3125 0.234375,-0.27344 0.234375,-0.56641 l 0,-21.32812 q 0,-0.29297 -0.234375,-0.56641 -0.214844,-0.27344 -0.644532,-0.3125 l -2.109375,-0.15625 0,-1.71875 10.3125,0 q 3.144532,0 5.839844,0.80078 2.695313,0.78125 4.648438,2.42188 1.972656,1.64062 3.085937,4.16015 1.113281,2.51953 1.113281,5.97657 z m -4.53125,0.0781 q 0,-3.14453 -0.742187,-5.33203 -0.722656,-2.20703 -2.089844,-3.57422 -1.347656,-1.38672 -3.28125,-1.99219 -1.914062,-0.625 -4.277344,-0.625 l -3.046875,0 0,23.00782 3.242188,-0.0391 q 2.304687,-0.0195 4.179687,-0.64453 1.894532,-0.64453 3.222657,-2.01172 1.328125,-1.36718 2.050781,-3.53515 0.742187,-2.16797 0.742187,-5.25391 z" />
        <path
           inkscape:connector-curvature="0"
           id="path4507"
           style="font-style:normal;font-variant:normal;font-weight:normal;font-stretch:normal;font-size:40px;line-height:125%;font-family:'Abyssinica SIL';-inkscape-font-specification:'Abyssinica SIL, Normal';text-align:start;writing-mode:lr-tb;text-anchor:start;fill:#ffffff"
           d="m 108.91211,518.42578 q -0.83984,0.52734 -1.75781,0.97656 -0.89844,0.44922 -1.875,0.78125 -0.95703,0.33203 -1.95313,0.52735 -0.99609,0.19531 -2.01172,0.19531 -1.816403,0 -3.496091,-0.60547 -1.679687,-0.625 -2.96875,-1.85547 -1.269531,-1.23047 -2.050781,-3.08594 -0.761719,-1.875 -0.761719,-4.375 0,-2.34375 0.703125,-4.23828 0.703125,-1.91406 1.953125,-3.26172 1.25,-1.36718 2.96875,-2.08984 1.71875,-0.74219 3.769531,-0.74219 1.85547,0 3.26172,0.625 1.40625,0.60547 2.34375,1.69922 0.9375,1.07422 1.40625,2.59766 0.46875,1.5039 0.46875,3.28125 l 0,0.52734 q 0,0.3125 -0.0391,0.58594 l -12.968753,0 q 0,1.52344 0.3125,3.04687 0.332031,1.52344 1.09375,2.73438 0.761719,1.21094 2.050781,1.97266 1.289062,0.74218 3.222652,0.74218 0.85938,0 1.69922,-0.21484 0.83985,-0.23438 1.64063,-0.58594 0.82031,-0.35156 1.5625,-0.78125 0.74219,-0.44922 1.42578,-0.89844 l 0,2.44141 z m -4.00391,-11.13281 q 0,-0.9961 -0.23437,-1.83594 -0.23438,-0.85937 -0.72266,-1.48437 -0.46875,-0.625 -1.21094,-0.97657 -0.72265,-0.37109 -1.71875,-0.37109 -0.99609,0 -1.855464,0.39062 -0.859375,0.3711 -1.523438,1.09375 -0.644531,0.72266 -1.054687,1.75782 -0.390625,1.01562 -0.46875,2.30468 l 8.789059,0 0,-0.8789 z" />
        <path
           inkscape:connector-curvature="0"
           id="path4509"
           style="font-style:normal;font-variant:normal;font-weight:normal;font-stretch:normal;font-size:40px;line-height:125%;font-family:'Abyssinica SIL';-inkscape-font-specification:'Abyssinica SIL, Normal';text-align:start;writing-mode:lr-tb;text-anchor:start;fill:#ffffff"
           d="m 128.91211,502.9375 -6.99219,17.48047 -2.59765,0 -6.44532,-17.48047 -2.20703,-0.23438 0,-1.5625 8.84766,0 0,1.5625 -1.91406,0.11719 q -0.27344,0.0391 -0.46875,0.21485 -0.17579,0.15625 -0.17579,0.42968 0,0.0781 0.0391,0.23438 l 4.47265,12.51953 4.92188,-12.51953 q 0.0586,-0.11719 0.0586,-0.25391 0,-0.23437 -0.17578,-0.41015 -0.15625,-0.19532 -0.42969,-0.21485 l -1.79687,-0.11719 0,-1.5625 6.99219,0 0,1.5625 -2.12891,0.23438 z" />
      </g>
    </g>
  </g>
</svg>
